{"asset":{"version":"2.0","generator":"Blockbench 4.12.5 glTF exporter"},"scenes":[{"nodes":[13],"name":"blockbench_export"}],"scene":0,"nodes":[{"rotation":[0,0,-0.7071067811865475,0.7071067811865476],"translation":[-0.12132375000000001,0,0],"name":"cylinder","mesh":0},{"translation":[0.43382375,0.25,0.625],"name":"wheel_left_front","children":[0]},{"rotation":[0,0,0.7071067811865475,0.7071067811865476],"translation":[0.12132375000000001,0,0],"name":"cylinder","mesh":1},{"translation":[-0.43382375,0.25,0.625],"name":"wheel_right_front","children":[2]},{"rotation":[0,0,0.7071067811865475,0.7071067811865476],"translation":[0.12132375000000001,0,0],"name":"cylinder","mesh":2},{"translation":[-0.43382375,0.25,-0.75],"name":"wheel_right_rear","children":[4]},{"rotation":[0,0,-0.7071067811865475,0.7071067811865476],"translation":[-0.12132375000000001,0,0],"name":"cylinder","mesh":3},{"translation":[0.43382375,0.25,-0.75],"name":"wheel_left_rear","children":[6]},{"translation":[0,0.125,0],"name":"body","mesh":4},{"translation":[0.580078125,0.8671875,0.27734375],"name":"mirror_left","mesh":5},{"translation":[-0.580078125,0.8671875,0.27734375],"name":"mirror_right","mesh":6},{"name":"car_body","children":[8,9,10]},{"name":"root","children":[1,3,5,7,11]},{"children":[12]}],"bufferViews":[{"buffer":0,"byteOffset":0,"byteLength":1728,"target":34962,"byteStride":12},{"buffer":0,"byteOffset":1728,"byteLength":1728,"target":34962,"byteStride":12},{"buffer":0,"byteOffset":3456,"byteLength":1152,"target":34962,"byteStride":8},{"buffer":0,"byteOffset":4608,"byteLength":384,"target":34963},{"buffer":0,"byteOffset":4992,"byteLength":1728,"target":34962,"byteStride":12},{"buffer":0,"byteOffset":6720,"byteLength":1728,"target":34962,"byteStride":12},{"buffer":0,"byteOffset":8448,"byteLength":1152,"target":34962,"byteStride":8},{"buffer":0,"byteOffset":9600,"byteLength":384,"target":34963},{"buffer":0,"byteOffset":9984,"byteLength":1728,"target":34962,"byteStride":12},{"buffer":0,"byteOffset":11712,"byteLength":1728,"target":34962,"byteStride":12},{"buffer":0,"byteOffset":13440,"byteLength":1152,"target":34962,"byteStride":8},{"buffer":0,"byteOffset":14592,"byteLength":384,"target":34963},{"buffer":0,"byteOffset":14976,"byteLength":1728,"target":34962,"byteStride":12},{"buffer":0,"byteOffset":16704,"byteLength":1728,"target":34962,"byteStride":12},{"buffer":0,"byteOffset":18432,"byteLength":1152,"target":34962,"byteStride":8},{"buffer":0,"byteOffset":19584,"byteLength":384,"target":34963},{"buffer":0,"byteOffset":19968,"byteLength":3936,"target":34962,"byteStride":12},{"buffer":0,"byteOffset":23904,"byteLength":3936,"target":34962,"byteStride":12},{"buffer":0,"byteOffset":27840,"byteLength":2624,"target":34962,"byteStride":8},{"buffer":0,"byteOffset":30464,"byteLength":984,"target":34963},{"buffer":0,"byteOffset":31448,"byteLength":672,"target":34962,"byteStride":12},{"buffer":0,"byteOffset":32120,"byteLength":672,"target":34962,"byteStride":12},{"buffer":0,"byteOffset":32792,"byteLength":448,"target":34962,"byteStride":8},{"buffer":0,"byteOffset":33240,"byteLength":168,"target":34963},{"buffer":0,"byteOffset":33408,"byteLength":672,"target":34962,"byteStride":12},{"buffer":0,"byteOffset":34080,"byteLength":672,"target":34962,"byteStride":12},{"buffer":0,"byteOffset":34752,"byteLength":448,"target":34962,"byteStride":8},{"buffer":0,"byteOffset":35200,"byteLength":168,"target":34963},{"buffer":0,"byteOffset":35368,"byteLength":20},{"buffer":0,"byteOffset":35388,"byteLength":80},{"buffer":0,"byteOffset":35468,"byteLength":20},{"buffer":0,"byteOffset":35488,"byteLength":80},{"buffer":0,"byteOffset":35568,"byteLength":20},{"buffer":0,"byteOffset":35588,"byteLength":80},{"buffer":0,"byteOffset":35668,"byteLength":20},{"buffer":0,"byteOffset":35688,"byteLength":80},{"buffer":0,"byteOffset":35768,"byteLength":24},{"buffer":0,"byteOffset":35792,"byteLength":72}],"buffers":[{"byteLength":35864,"uri":"data:application/octet-stream;base64,"}],"accessors":[{"bufferView":0,"componentType":5126,"count":144,"max":[0.25,0.1875,0.25],"min":[-0.25,0,-0.25],"type":"VEC3"},{"bufferView":1,"componentType":5126,"count":144,"max":[1,1,1],"min":[-1,-1,-1],"type":"VEC3"},{"bufferView":2,"componentType":5126,"count":144,"max":[0.546875,0.484375],"min":[0,0],"type":"VEC2"},{"bufferView":3,"componentType":5123,"count":192,"max":[143],"min":[0],"type":"SCALAR"},{"bufferView":4,"componentType":5126,"count":144,"max":[0.25,0.1875,0.25],"min":[-0.25,0,-0.25],"type":"VEC3"},{"bufferView":5,"componentType":5126,"count":144,"max":[1,1,1],"min":[-1,-1,-1],"type":"VEC3"},{"bufferView":6,"componentType":5126,"count":144,"max":[0.5625,0.5546875],"min":[0,0.0390625],"type":"VEC2"},{"bufferView":7,"componentType":5123,"count":192,"max":[143],"min":[0],"type":"SCALAR"},{"bufferView":8,"componentType":5126,"count":144,"max":[0.25,0.1875,0.25],"min":[-0.25,0,-0.25],"type":"VEC3"},{"bufferView":9,"componentType":5126,"count":144,"max":[1,1,1],"min":[-1,-1,-1],"type":"VEC3"},{"bufferView":10,"componentType":5126,"count":144,"max":[0.578125,0.5703125],"min":[0,0.09375],"type":"VEC2"},{"bufferView":11,"componentType":5123,"count":192,"max":[143],"min":[0],"type":"SCALAR"},{"bufferView":12,"componentType":5126,"count":144,"max":[0.25,0.1875,0.25],"min":[-0.25,0,-0.25],"type":"VEC3"},{"bufferView":13,"componentType":5126,"count":144,"max":[1,1,1],"min":[-1,-1,-1],"type":"VEC3"},{"bufferView":14,"componentType":5126,"count":144,"max":[0.5859375,0.578125],"min":[0,0.0234375],"type":"VEC2"},{"bufferView":15,"componentType":5123,"count":192,"max":[143],"min":[0],"type":"SCALAR"},{"bufferView":16,"componentType":5126,"count":328,"max":[0.5,1.1875,1.125],"min":[-0.5,0.125,-1.1875],"type":"VEC3"},{"bufferView":17,"componentType":5126,"count":328,"max":[1,1,1],"min":[-1,-1,-1],"type":"VEC3"},{"bufferView":18,"componentType":5126,"count":328,"max":[0.5830078125,0.578125],"min":[0,0],"type":"VEC2"},{"bufferView":19,"componentType":5123,"count":492,"max":[327],"min":[0],"type":"SCALAR"},{"bufferView":20,"componentType":5126,"count":56,"max":[0.138671875,0.0703125,0.06640625],"min":[-0.111328125,-0.0546875,-0.05859375],"type":"VEC3"},{"bufferView":21,"componentType":5126,"count":56,"max":[0.8944271802902222,1,1],"min":[-1,-1,-1],"type":"VEC3"},{"bufferView":22,"componentType":5126,"count":56,"max":[0.598290205001831,0.4453125],"min":[0,0],"type":"VEC2"},{"bufferView":23,"componentType":5123,"count":84,"max":[55],"min":[0],"type":"SCALAR"},{"bufferView":24,"componentType":5126,"count":56,"max":[0.111328125,0.0703125,0.06640625],"min":[-0.138671875,-0.0546875,-0.05859375],"type":"VEC3"},{"bufferView":25,"componentType":5126,"count":56,"max":[1,1,1],"min":[-0.8944271802902222,-1,-1],"type":"VEC3"},{"bufferView":26,"componentType":5126,"count":56,"max":[0.5859375,0.5859375],"min":[0.001953125,0.0703125],"type":"VEC2"},{"bufferView":27,"componentType":5123,"count":84,"max":[55],"min":[0],"type":"SCALAR"},{"bufferView":28,"componentType":5126,"count":5,"max":[1],"min":[0],"type":"SCALAR"},{"bufferView":29,"componentType":5126,"count":5,"max":[1,0,0,1],"min":[0,0,0,-1],"type":"VEC4"},{"bufferView":30,"componentType":5126,"count":5,"max":[1],"min":[0],"type":"SCALAR"},{"bufferView":31,"componentType":5126,"count":5,"max":[1,0,0,1],"min":[0,0,0,-1],"type":"VEC4"},{"bufferView":32,"componentType":5126,"count":5,"max":[1],"min":[0],"type":"SCALAR"},{"bufferView":33,"componentType":5126,"count":5,"max":[1,0,0,1],"min":[0,0,0,-1],"type":"VEC4"},{"bufferView":34,"componentType":5126,"count":5,"max":[1],"min":[0],"type":"SCALAR"},{"bufferView":35,"componentType":5126,"count":5,"max":[1,0,0,1],"min":[0,0,0,-1],"type":"VEC4"},{"bufferView":36,"componentType":5126,"count":6,"max":[1],"min":[0],"type":"SCALAR"},{"bufferView":37,"componentType":5126,"count":6,"max":[0,0.0625,0],"min":[0,0,0],"type":"VEC3"}],"materials":[{"pbrMetallicRoughness":{"metallicFactor":0,"roughnessFactor":1,"baseColorTexture":{"index":0}},"alphaMode":"MASK","alphaCutoff":0.05,"doubleSided":true}],"textures":[{"sampler":0,"source":0,"name":"truck"}],"samplers":[{"magFilter":9728,"minFilter":9728,"wrapS":33071,"wrapT":33071}],"images":[{"mimeType":"image/png","uri":"data:image/png;base64,"}],"meshes":[{"primitives":[{"mode":4,"attributes":{"POSITION":0,"NORMAL":1,"TEXCOORD_0":2},"indices":3,"material":0}]},{"primitives":[{"mode":4,"attributes":{"POSITION":4,"NORMAL":5,"TEXCOORD_0":6},"indices":7,"material":0}]},{"primitives":[{"mode":4,"attributes":{"POSITION":8,"NORMAL":9,"TEXCOORD_0":10},"indices":11,"material":0}]},{"primitives":[{"mode":4,"attributes":{"POSITION":12,"NORMAL":13,"TEXCOORD_0":14},"indices":15,"material":0}]},{"primitives":[{"mode":4,"attributes":{"POSITION":16,"NORMAL":17,"TEXCOORD_0":18},"indices":19,"material":0}]},{"primitives":[{"mode":4,"attributes":{"POSITION":20,"NORMAL":21,"TEXCOORD_0":22},"indices":23,"material":0}]},{"primitives":[{"mode":4,"attributes":{"POSITION":24,"NORMAL":25,"TEXCOORD_0":26},"indices":27,"material":0}]}],"animations":[{"name":"driving","samplers":[{"input":28,"output":29,"interpolation":"LINEAR"},{"input":30,"output":31,"interpolation":"LINEAR"},{"input":32,"output":33,"interpolation":"LINEAR"},{"input":34,"output":35,"interpolation":"LINEAR"},{"input":36,"output":37,"interpolation":"LINEAR"}],"channels":[{"sampler":0,"target":{"node":1,"path":"rotation"}},{"sampler":1,"target":{"node":3,"path":"rotation"}},{"sampler":2,"target":{"node":5,"path":"rotation"}},{"sampler":3,"target":{"node":7,"path":"rotation"}},{"sampler":4,"target":{"node":11,"path":"translation"}}]}]}